<svg width="75" height="105" viewBox="0 0 75 105" fill="none" xmlns="http://www.w3.org/2000/svg">
<path d="M3.03331 15.0647L3.01403 8.19334C3.00628 5.43193 5.23857 3.18708 7.99998 3.17933L16.2297 3.15623" stroke="#003E84" stroke-width="5"/>
<path d="M72.1714 90.0514L72.1907 96.9227C72.1984 99.6842 69.9661 101.929 67.2047 101.937L58.975 101.96" stroke="#003E84" stroke-width="5"/>
<path d="M60.0203 3.03341L66.9271 3.01403C69.6885 3.00628 71.9333 5.23857 71.9411 7.99998L71.9641 16.1904" stroke="#003E84" stroke-width="5"/>
<path d="M15.1843 102.083L8.27757 102.102C5.51616 102.11 3.27131 99.8775 3.26356 97.1161L3.24058 88.9257" stroke="#003E84" stroke-width="5"/>
<path d="M51.7488 75.3106L57.3195 27.3927L16.5467 27.5071L22.3862 75.393C22.9994 80.4211 27.2754 84.1967 32.3408 84.1824L41.8438 84.1558C46.9092 84.1416 51.1639 80.3421 51.7488 75.3106Z" fill="#C4C4C4"/>
<path d="M14.6305 25.7056L14.6328 26.5423C14.6352 27.3942 15.3277 28.0829 16.1796 28.0805L57.69 27.964C58.5419 27.9616 59.2305 27.2691 59.2281 26.4172L59.2258 25.5804C59.2247 25.1907 58.9078 24.8756 58.5181 24.8767C58.2091 24.8775 57.9355 24.6773 57.8429 24.3826L56.9303 21.4804C56.5364 20.2276 55.3733 19.3766 54.06 19.3803L19.7614 19.4765C18.4481 19.4802 17.2898 20.3377 16.9029 21.5927L16.0067 24.5C15.9156 24.7953 15.6432 24.997 15.3342 24.9978C14.9445 24.9989 14.6294 25.3158 14.6305 25.7056Z" fill="#404040"/>
</svg>
