<svg width="102" height="218" viewBox="0 0 102 218" fill="none" xmlns="http://www.w3.org/2000/svg">
<path d="M35.042 166.144C34.786 166.592 34.5087 166.923 34.21 167.136C33.9327 167.328 33.5807 167.424 33.154 167.424C32.706 167.424 32.2153 167.264 31.682 166.944C31.17 166.603 30.5513 166.229 29.826 165.824C29.1007 165.419 28.2473 165.056 27.266 164.736C26.306 164.395 25.1647 164.224 23.842 164.224C22.6473 164.224 21.602 164.373 20.706 164.672C19.81 164.949 19.0527 165.344 18.434 165.856C17.8367 166.368 17.3887 166.987 17.09 167.712C16.7913 168.416 16.642 169.195 16.642 170.048C16.642 171.136 16.9407 172.043 17.538 172.768C18.1567 173.493 18.9673 174.112 19.97 174.624C20.9727 175.136 22.114 175.595 23.394 176C24.674 176.405 25.986 176.843 27.33 177.312C28.674 177.76 29.986 178.293 31.266 178.912C32.546 179.509 33.6873 180.277 34.69 181.216C35.6927 182.133 36.4927 183.264 37.09 184.608C37.7087 185.952 38.018 187.584 38.018 189.504C38.018 191.595 37.6553 193.557 36.93 195.392C36.226 197.205 35.1807 198.795 33.794 200.16C32.4287 201.504 30.754 202.571 28.77 203.36C26.786 204.128 24.514 204.512 21.954 204.512C20.482 204.512 19.0313 204.363 17.602 204.064C16.1727 203.787 14.7967 203.381 13.474 202.848C12.1727 202.315 10.946 201.675 9.794 200.928C8.642 200.181 7.618 199.349 6.722 198.432L9.25 194.304C9.46333 194.005 9.74067 193.76 10.082 193.568C10.4233 193.355 10.786 193.248 11.17 193.248C11.7033 193.248 12.2793 193.472 12.898 193.92C13.5167 194.347 14.2527 194.827 15.106 195.36C15.9593 195.893 16.9513 196.384 18.082 196.832C19.234 197.259 20.61 197.472 22.21 197.472C24.6633 197.472 26.562 196.896 27.906 195.744C29.25 194.571 29.922 192.896 29.922 190.72C29.922 189.504 29.6127 188.512 28.994 187.744C28.3967 186.976 27.5967 186.336 26.594 185.824C25.5913 185.291 24.45 184.843 23.17 184.48C21.89 184.117 20.5887 183.723 19.266 183.296C17.9433 182.869 16.642 182.357 15.362 181.76C14.082 181.163 12.9407 180.384 11.938 179.424C10.9353 178.464 10.1247 177.269 9.506 175.84C8.90867 174.389 8.61 172.608 8.61 170.496C8.61 168.811 8.94067 167.168 9.602 165.568C10.2847 163.968 11.266 162.549 12.546 161.312C13.826 160.075 15.4047 159.083 17.282 158.336C19.1593 157.589 21.314 157.216 23.746 157.216C26.4767 157.216 28.994 157.643 31.298 158.496C33.602 159.349 35.5647 160.544 37.186 162.08L35.042 166.144ZM52.346 171.168V204H44.41V171.168H52.346ZM53.434 161.6C53.434 162.283 53.2953 162.923 53.018 163.52C52.7407 164.117 52.3673 164.64 51.898 165.088C51.45 165.536 50.9167 165.899 50.298 166.176C49.6793 166.432 49.018 166.56 48.314 166.56C47.6313 166.56 46.9807 166.432 46.362 166.176C45.7647 165.899 45.242 165.536 44.794 165.088C44.346 164.64 43.9833 164.117 43.706 163.52C43.45 162.923 43.322 162.283 43.322 161.6C43.322 160.896 43.45 160.235 43.706 159.616C43.9833 158.997 44.346 158.464 44.794 158.016C45.242 157.568 45.7647 157.216 46.362 156.96C46.9807 156.683 47.6313 156.544 48.314 156.544C49.018 156.544 49.6793 156.683 50.298 156.96C50.9167 157.216 51.45 157.568 51.898 158.016C52.3673 158.464 52.7407 158.997 53.018 159.616C53.2953 160.235 53.434 160.896 53.434 161.6ZM91.86 177.088V194.88C91.86 195.904 92.116 196.704 92.628 197.28C93.14 197.856 93.8227 198.144 94.676 198.144C95.1667 198.144 95.572 198.091 95.892 197.984C96.2333 197.856 96.5213 197.728 96.756 197.6C97.012 197.472 97.236 197.355 97.428 197.248C97.62 197.12 97.812 197.056 98.004 197.056C98.2387 197.056 98.4307 197.12 98.58 197.248C98.7293 197.355 98.8893 197.525 99.06 197.76L101.428 201.6C100.276 202.56 98.9533 203.285 97.46 203.776C95.988 204.267 94.452 204.512 92.852 204.512C89.9933 204.512 87.796 203.712 86.26 202.112C84.724 200.491 83.956 198.261 83.956 195.424V177.088H70.612V204H62.708V177.12L59.86 176.672C59.2413 176.544 58.74 176.331 58.356 176.032C57.9933 175.712 57.812 175.264 57.812 174.688V171.456H62.708V169.024C62.708 167.147 62.9853 165.461 63.54 163.968C64.116 162.475 64.9267 161.205 65.972 160.16C67.0387 159.115 68.3293 158.315 69.844 157.76C71.3587 157.205 73.0653 156.928 74.964 156.928C76.4787 156.928 77.8867 157.131 79.188 157.536L79.028 161.504C79.0067 161.803 78.9213 162.048 78.772 162.24C78.6227 162.411 78.42 162.549 78.164 162.656C77.9293 162.741 77.652 162.805 77.332 162.848C77.012 162.869 76.6707 162.88 76.308 162.88C75.3693 162.88 74.5267 162.987 73.78 163.2C73.0547 163.392 72.436 163.744 71.924 164.256C71.412 164.747 71.0173 165.408 70.74 166.24C70.484 167.051 70.356 168.064 70.356 169.28V171.456H84.308L86.004 162.464C86.1107 162.037 86.3133 161.707 86.612 161.472C86.9107 161.237 87.2947 161.12 87.764 161.12H91.86V171.456H100.628V177.088H91.86Z" fill="#0188B4"/>
<path d="M23 64.553V12.9242C23 7.36495 29.1685 4.02401 33.8246 7.06144L97.3474 48.5006C100.241 50.3882 101.955 53.6356 101.881 57.0895L100.86 104.91C100.745 110.29 94.8549 113.534 90.2466 110.755L27.8357 73.1163C24.8346 71.3064 23 68.0576 23 64.553Z" fill="#0188B4"/>
<path d="M0 80.553V28.9242C0 23.365 6.16847 20.024 10.8246 23.0614L74.3474 64.5006C77.2409 66.3882 78.9551 69.6356 78.8814 73.0895L77.86 120.91C77.7451 126.29 71.8549 129.534 67.2466 126.755L4.83567 89.1163C1.83461 87.3064 0 84.0576 0 80.553Z" fill="#1AC7FF" fill-opacity="0.5"/>
</svg>
