<svg width="286" height="98" viewBox="0 0 286 98" fill="none" xmlns="http://www.w3.org/2000/svg">
<rect width="286" height="98" rx="5" fill="#B7B7B7"/>
<path d="M46.1876 62.8421C46.1876 66.4723 43.6393 69.1804 40.7666 69.1804C37.894 69.1804 35.3457 66.4723 35.3457 62.8421C35.3457 59.212 37.894 56.5039 40.7666 56.5039C43.6393 56.5039 46.1876 59.212 46.1876 62.8421Z" stroke="white" stroke-width="2"/>
<path d="M16 53C16 51.3431 17.3431 50 19 50H36.8493C38.5061 50 39.8493 51.3431 39.8493 53V67.4283C39.8493 74.0141 34.5104 79.3529 27.9246 79.3529C21.3388 79.3529 16 74.0141 16 67.4283V53Z" fill="white"/>
<rect x="19.6692" y="77.5186" width="16.511" height="1.83456" fill="white"/>
<path d="M211 76.397C211 78.0538 209.657 79.397 208 79.397L195 79.397C193.343 79.397 192 78.0538 192 76.397L192 50.897C192 45.6503 196.253 41.397 201.5 41.397C206.747 41.397 211 45.6503 211 50.897L211 76.397Z" fill="white"/>
<rect x="209" y="43.397" width="15.2308" height="2.39706" transform="rotate(-180 209 43.397)" fill="white"/>
<path d="M67.0232 25H81.0232V52C81.0232 54.7614 78.7846 57 76.0232 57H72.0232C69.2618 57 67.0232 54.7614 67.0232 52V25Z" fill="white"/>
<rect x="72.9767" y="55.6665" width="2.09302" height="20.2632" fill="white"/>
<rect x="66" y="77.772" width="16.0465" height="1.22807" fill="white"/>
<path d="M72.8023 75.9297L71.5814 77.7718H76.4651L75.2442 75.9297H72.8023Z" fill="white"/>
<path d="M252.208 7H246.25C245.944 7 245.333 7.22903 245.333 8.14516C245.333 9.36667 245.639 9.67204 245.792 9.67204V10.0538C245.792 14.329 245.588 20.7419 244.875 23.414C243.958 26.8495 238 35.629 238 41.3548V75.328C238 77.1602 239.833 77.8728 240.75 78H255.417C258.717 78 259.847 76.2186 260 75.328V40.9731C260 36.0108 254.5 26.4677 253.583 23.414C252.667 20.3602 252.208 9.67204 252.667 9.67204C253.125 9.67204 253.125 9.29032 253.125 8.14516C253.125 7.22903 252.514 7 252.208 7Z" fill="white"/>
<path d="M101 43C101 41.8954 101.895 41 103 41H124C125.105 41 126 41.8954 126 43V74C126 76.7614 123.761 79 121 79H106C103.239 79 101 76.7614 101 74V43Z" fill="white"/>
<rect x="105" y="37" width="18" height="3" rx="1" fill="white"/>
<path d="M149 36.769C149 34.0076 151.239 31.769 154 31.769H160C162.761 31.769 165 34.0076 165 36.769V77.5383C165 78.0906 164.552 78.5383 164 78.5383H150C149.448 78.5383 149 78.0906 149 77.5383V36.769Z" fill="white"/>
<rect x="153.923" y="18.231" width="6.15385" height="23.3846" fill="white"/>
<rect x="152.692" y="17" width="8.61539" height="2.46154" fill="white"/>
</svg>
