<svg width="295" height="98" viewBox="0 0 295 98" fill="none" xmlns="http://www.w3.org/2000/svg">
<rect width="295" height="98" rx="5" fill="#48B47B"/>
<path d="M32.8277 49.2401V57.1106L43.5553 49.4644C48.8222 45.7103 51.9325 39.7512 51.9325 33.414V28.4969C51.9325 27.2721 50.4959 26.5675 49.4779 27.2931L41.2049 33.1898C35.938 36.9438 32.8277 42.903 32.8277 49.2401Z" fill="white"/>
<path d="M33.696 60.6268V62.5821L28.7415 59.0101C23.9363 55.5458 21.1042 50.0828 21.1042 44.2778C21.1042 43.1456 22.4354 42.4972 23.3726 43.1728L25.4091 44.6411C30.6231 48.4001 33.696 54.3279 33.696 60.6268Z" fill="white"/>
<path d="M31.5249 53.112C31.5249 52.5309 32.0109 52.0598 32.6104 52.0598C33.2099 52.0598 33.6959 52.5309 33.6959 53.112V69.9478C33.6959 70.5289 33.2099 71 32.6104 71C32.0109 71 31.5249 70.5289 31.5249 69.9478V53.112Z" fill="white"/>
<path fill-rule="evenodd" clip-rule="evenodd" d="M105.452 51.8C105.969 51.8 106.408 51.4041 106.392 50.8873C106.193 44.3052 97.2935 39 86.3616 39C75.4298 39 66.5299 44.3052 66.331 50.8873C66.3153 51.4041 66.7547 51.8 67.2717 51.8H105.452Z" fill="white"/>
<path fill-rule="evenodd" clip-rule="evenodd" d="M73.0266 58.4987C74.1278 58.4987 74.5884 58.7973 75.3292 59.2667C76.2302 59.8427 77.4716 60.632 79.6941 60.632C81.9166 60.632 83.158 59.8427 84.059 59.2667C84.7999 58.776 85.2404 58.4987 86.3616 58.4987C87.4629 58.4987 87.9234 58.7973 88.6642 59.2667C89.5652 59.8427 90.8067 60.632 93.0292 60.632C95.2517 60.632 96.4931 59.8427 97.3941 59.2667C98.1349 58.776 98.5754 58.4987 99.6967 58.4987C100.798 58.4987 101.258 58.7973 101.999 59.2667C102.9 59.8427 104.142 60.6107 106.344 60.632V56.408C106.344 56.408 104.762 56.0667 104.022 55.5973C103.121 55.0213 101.879 54.232 99.6566 54.232C97.4341 54.232 96.1927 55.0213 95.2917 55.5973C94.5509 56.088 94.0904 56.3653 92.9891 56.3653C91.8879 56.3653 91.4273 56.0667 90.6865 55.5973C89.7855 55.0213 88.5441 54.232 86.3216 54.232C84.0991 54.232 82.8577 55.0213 81.9567 55.5973C81.2158 56.088 80.7753 56.3653 79.6541 56.3653C78.5528 56.3653 78.0923 56.0667 77.3515 55.5973C76.4505 55.0213 75.2091 54.232 72.9866 54.232C70.764 54.232 69.5226 55.0213 68.6216 55.5973C67.8808 56.088 67.4403 56.3653 66.319 56.3653V60.632C68.5415 60.632 69.7829 59.8427 70.744 59.2667C71.4849 58.776 71.9254 58.4987 73.0266 58.4987Z" fill="white"/>
<path fill-rule="evenodd" clip-rule="evenodd" d="M69.319 62.4667C67.6622 62.4667 66.319 63.8098 66.319 65.4667V66.7333C66.319 69.08 68.1211 71 70.3235 71H102.36C104.562 71 106.364 69.08 106.364 66.7333V65.4667C106.364 63.8098 105.021 62.4667 103.364 62.4667H69.319Z" fill="white"/>
<ellipse rx="4.13219" ry="4.15564" transform="matrix(0.63968 0.768641 -0.785405 0.618983 126.975 60.4071)" fill="white"/>
<ellipse rx="4.40875" ry="4.43377" transform="matrix(0.63968 0.768641 -0.785405 0.618983 152.153 40.3475)" fill="white"/>
<ellipse rx="4.13219" ry="4.15564" transform="matrix(0.63968 0.768641 -0.785405 0.618983 130.695 64.8217)" fill="white"/>
<ellipse rx="4.40875" ry="4.43377" transform="matrix(0.63968 0.768641 -0.785405 0.618983 156.459 44.9808)" fill="white"/>
<rect width="5.39988" height="27.5585" transform="matrix(0.63968 0.768641 -0.785405 0.618983 150.025 42.4443)" fill="white"/>
<path d="M185.562 44.0435C188.837 44.0435 191.181 45.0425 192.045 45.5998C192.908 45.0425 195.253 44.0435 198.527 44.0435C202.784 44.0435 209.17 47.691 205.88 59.6469C202.591 71.6027 196.785 70.9948 195.818 70.9948C195.014 70.9948 193.276 70.5753 192.045 69.7362C190.813 70.5753 189.075 70.9948 188.271 70.9948C187.304 70.9948 181.499 71.6027 178.209 59.6469C174.919 47.691 181.305 44.0435 185.562 44.0435Z" fill="white"/>
<path d="M192.491 42.7477V44.0435L196.711 41.6765C200.803 39.3809 203.214 35.7608 203.214 31.9141C203.214 31.1639 202.081 30.7342 201.283 31.182L199.548 32.1549C195.108 34.6458 192.491 38.5738 192.491 42.7477Z" fill="white"/>
<path d="M237.553 34.9333H235.258V31.9183L237.553 31.6503V34.9333ZM237.553 48.3333H235.258V37.1667H237.553V48.3333ZM230.668 37.1667H232.963V48.3333H230.668V37.1667ZM230.668 32.432L232.963 32.164V34.9333H230.668V32.432ZM267.388 28.2333V26L228.373 30.4667V48.3333H221.488C221.488 56.5743 227.156 63.654 235.258 66.7583V70.6667H253.618V66.7583C261.719 63.654 267.388 56.5743 267.388 48.3333H239.848V37.1667H267.388V34.9333H239.848V31.3823L267.388 28.2333Z" fill="white"/>
</svg>
