<svg width="295" height="98" viewBox="0 0 295 98" fill="none" xmlns="http://www.w3.org/2000/svg">
<rect width="295" height="98" rx="5" fill="#3E5BA5"/>
<path d="M16 41.1538C16 40.0492 16.8954 39.1538 18 39.1538H33C34.1046 39.1538 35 40.0492 35 41.1538V75.923C35 77.0276 34.1046 77.923 33 77.923H18C16.8954 77.923 16 77.0276 16 75.923V41.1538Z" fill="white"/>
<path d="M16 27.5381C16 24.7767 18.2386 22.5381 21 22.5381H30C32.7614 22.5381 35 24.7767 35 27.5381V35.7689C35 36.8734 34.1046 37.7689 33 37.7689H18C16.8954 37.7689 16 36.8734 16 35.7689V27.5381Z" fill="white"/>
<rect x="21.8463" y="17" width="7.30769" height="4.15385" rx="1" fill="white"/>
<path d="M72.7655 45H55.2345C54.0425 45 53.1151 46.0361 53.2468 47.2209L56.469 76.2209C56.5815 77.2337 57.4377 78 58.4568 78H69.5432C70.5623 78 71.4185 77.2337 71.531 76.2209L74.7532 47.2209C74.8849 46.0361 73.9575 45 72.7655 45Z" fill="white"/>
<path d="M133.283 44.0163V71.5772C133.283 74.9999 130.508 77.7745 127.085 77.7745H99.1973C95.7746 77.7745 93 74.9998 93 71.5772V34.6711V28.8955C93 27.1842 94.3873 25.7969 96.0987 25.7969H117.831C118.761 25.7969 119.642 26.2147 120.231 26.9351L132.584 42.0559C133.036 42.6092 133.283 43.3018 133.283 44.0163Z" fill="white"/>
<path d="M125.905 39.8239L115.969 28.318C115.218 27.4489 113.791 27.9797 113.791 29.1282V40.1505C113.791 40.8351 114.346 41.39 115.03 41.39H125.189C125.712 41.39 126.136 40.966 126.136 40.4429C126.136 40.2156 126.054 39.9959 125.905 39.8239Z" fill="#3E5BA5"/>
<path d="M98.1977 18.6197C98.1977 18.2775 98.4752 18 98.8174 18H111.872C112.214 18 112.492 18.2775 112.492 18.6197V22.578C112.492 22.9203 112.214 23.1978 111.872 23.1978H98.8174C98.4752 23.1978 98.1977 22.9203 98.1977 22.578V18.6197Z" fill="white"/>
<path d="M151 41.1904C151 40.0859 151.895 39.1904 153 39.1904H176.5C177.605 39.1904 178.5 40.0859 178.5 41.1904V74C178.5 76.7614 176.261 79 173.5 79H156C153.239 79 151 76.7614 151 74V41.1904Z" fill="white"/>
<rect x="155.4" y="35" width="19.8" height="3.14286" rx="1" fill="white"/>
<rect x="163" y="27" width="4" height="9" fill="white"/>
<rect x="159" y="25" width="12" height="4" rx="2" fill="white"/>
<rect x="169" y="26" width="11" height="2" rx="1" fill="white"/>
<path d="M199.337 36.7702L205.915 29.6897C206.861 28.6713 208.188 28.0928 209.578 28.0928H216.385C218.282 28.0928 220.016 29.1665 220.861 30.865L227.013 43.2266C227.358 43.9188 227.537 44.6813 227.537 45.4544V70.0002C227.537 74.4185 223.955 78.0002 219.537 78.0002H206C201.582 78.0002 198 74.4184 198 70.0002V40.1733C198 38.9108 198.478 37.6951 199.337 36.7702Z" fill="white"/>
<path d="M224.334 44.0942L219.848 35.1206C219.405 34.2356 218.124 34.465 218.055 35.4521C217.663 41.0875 217.896 48.4628 220.917 48.4628C224.312 48.4628 224.767 46.1339 224.546 44.7109C224.513 44.4946 224.432 44.29 224.334 44.0942Z" fill="#3E5BA5"/>
<rect x="208.185" y="23" width="10.1852" height="4.07407" rx="1" fill="white"/>
<path d="M252.118 75.309V54.5888C252.118 53.208 250.998 52.0887 249.617 52.0888L247.206 52.089L247 52.089C246.171 52.0891 245.502 51.4137 245.515 50.5916C245.623 43.3027 246.332 37.9556 247.496 34.2464C248.665 30.5242 250.258 28.5528 252.056 27.8323C252.372 27.7056 252.663 27.7787 252.898 27.9889C253.146 28.2101 253.324 28.5821 253.324 28.9999V75.309C253.324 75.642 253.054 75.9119 252.721 75.9119C252.388 75.912 252.118 75.642 252.118 75.309Z" fill="white" stroke="white"/>
<path d="M267.941 76.4119V37.5884" stroke="white" stroke-width="2"/>
<ellipse cx="267.941" cy="36.7059" rx="7.05882" ry="9.70588" fill="white"/>
</svg>
