<svg width="244" height="170" viewBox="0 0 244 170" fill="none" xmlns="http://www.w3.org/2000/svg">
<path d="M184 11.2222C184 5.02436 188.291 0 193.583 0H220.417C225.709 0 230 5.02436 230 11.2222V89.7778C230 95.9756 225.709 101 220.417 101H193.583C188.291 101 184 95.9756 184 89.7778V11.2222Z" fill="#00AEEF"/>
<path d="M0 19.4261V161.577C0 166.229 4.36428 170 9.7479 170H164.252C169.636 170 174 166.229 174 161.577V46.5744C174 42.5694 170.736 39.1182 166.195 38.3202L11.6904 11.1719C5.64981 10.1105 0 14.0996 0 19.4261Z" fill="#B0CEDB"/>
<path d="M91 94.8266C91 89.3995 95.1018 85 100.162 85H234.838C239.898 85 244 89.3995 244 94.8266V160.173C244 165.6 239.898 170 234.838 170H100.162C95.1018 170 91 165.6 91 160.173V94.8266Z" fill="#164989"/>
<path d="M127 119C127 116.239 129.239 114 132 114H152C154.761 114 157 116.239 157 119V170H127V119Z" fill="#C9C9C9"/>
<path d="M25 95C25 92.2386 27.2386 90 30 90H67C69.7614 90 72 92.2386 72 95V170H25V95Z" fill="#349ECC"/>
<path d="M184 116.121C184 114.95 184.95 114 186.121 114H195.879C197.05 114 198 114.95 198 116.121V125.879C198 127.05 197.05 128 195.879 128H186.121C184.95 128 184 127.05 184 125.879V116.121Z" fill="#C4C4C4"/>
<path d="M184 133.206C184 131.988 184.95 131 186.121 131H195.879C197.05 131 198 131.988 198 133.206V143.794C198 145.012 197.05 146 195.879 146H186.121C184.95 146 184 145.012 184 143.794V133.206Z" fill="#C4C4C4"/>
<path d="M201 116.121C201 114.95 201.959 114 203.143 114H213.857C215.041 114 216 114.95 216 116.121V125.879C216 127.05 215.041 128 213.857 128H203.143C201.959 128 201 127.05 201 125.879V116.121Z" fill="#C4C4C4"/>
<path d="M201 133.206C201 131.988 201.959 131 203.143 131H213.857C215.041 131 216 131.988 216 133.206V143.794C216 145.012 215.041 146 213.857 146H203.143C201.959 146 201 145.012 201 143.794V133.206Z" fill="#C4C4C4"/>
</svg>
