<svg width="80" height="80" viewBox="0 0 80 80" fill="none" xmlns="http://www.w3.org/2000/svg">
<rect width="80" height="80" rx="5" fill="#48B47B"/>
<path d="M34.2536 39.4111V51.4267L51.5777 40.0153C59.3879 34.8706 64.0001 26.7042 64.0001 18.0197V10.0513C64.0001 8.37289 61.8697 7.40736 60.3603 8.40163L46.676 17.4155C38.8657 22.5601 34.2536 30.7266 34.2536 39.4111Z" fill="white"/>
<path d="M35.6056 55.8003V59.3L27.8913 54.1601C20.4095 49.1752 16 41.3143 16 32.9613C16 31.3322 18.0726 30.3992 19.5318 31.3714L23.3171 33.8935C31.0488 39.0449 35.6056 47.1684 35.6056 55.8003Z" fill="white"/>
<path d="M32.2255 45.6731C32.2255 44.8369 32.9822 44.1591 33.9156 44.1591C34.849 44.1591 35.6057 44.8369 35.6057 45.6731V69.8985C35.6057 70.7347 34.849 71.4126 33.9156 71.4126C32.9822 71.4126 32.2255 70.7347 32.2255 69.8985V45.6731Z" fill="white"/>
</svg>
