<svg width="80" height="80" viewBox="0 0 80 80" fill="none" xmlns="http://www.w3.org/2000/svg">
<rect width="80" height="80" rx="5" fill="#3E5BA5"/>
<path d="M64 34.0628V64.8512C64 68.6747 60.9005 71.7743 57.077 71.7743H25.9231C22.0996 71.7743 19 68.6747 19 64.8512V23.6232V17.1713C19 15.2595 20.5498 13.7097 22.4615 13.7097H46.7388C47.7779 13.7097 48.762 14.1765 49.4195 14.9812L63.2192 31.8727C63.7242 32.4909 64 33.2646 64 34.0628Z" fill="white"/>
<path d="M55.7589 29.3796L44.6584 16.5263C43.8198 15.5554 42.2258 16.1484 42.2258 17.4313V29.7445C42.2258 30.5092 42.8457 31.1291 43.6104 31.1291H54.9582C55.5425 31.1291 56.0162 30.6554 56.0162 30.0711C56.0162 29.8172 55.9249 29.5717 55.7589 29.3796Z" fill="#3E5BA5"/>
<path d="M24.8064 5.69231C24.8064 5.30996 25.1164 5 25.4987 5H40.0818C40.4642 5 40.7742 5.30996 40.7742 5.69231V10.1142C40.7742 10.4965 40.4642 10.8065 40.0818 10.8065H25.4987C25.1164 10.8065 24.8064 10.4965 24.8064 10.1142V5.69231Z" fill="white"/>
</svg>
