<svg width="48" height="59" viewBox="0 0 48 59" fill="none" xmlns="http://www.w3.org/2000/svg">
<path d="M11.1628 27.8264V3.32718C11.1628 0.689151 14.0434 -0.896217 16.2177 0.545128L45.8817 20.2091C47.2329 21.1048 48.0334 22.6458 47.999 24.2848L47.522 46.977C47.4683 49.5301 44.7178 51.0693 42.5657 49.7505L13.421 31.8899C12.0196 31.0311 11.1628 29.4894 11.1628 27.8264Z" fill="#969696"/>
<path d="M0 35.6404V11.1411C0 8.50312 2.88056 6.91775 5.05489 8.35909L34.7188 28.0231C36.0701 28.9188 36.8706 30.4598 36.8361 32.0988L36.3592 54.791C36.3055 57.3441 33.5549 58.8833 31.4029 57.5645L2.25817 39.7039C0.856728 38.8451 0 37.3034 0 35.6404Z" fill="#AFAFAF" fill-opacity="0.5"/>
</svg>
